<svg width="114" height="28" viewBox="0 0 114 28" fill="none" xmlns="http://www.w3.org/2000/svg">
<path d="M66.3663 18.8699C65.0271 18.8699 64.4914 18.3195 64.4914 17.1168V11.5707H67.6762V7.54414H64.4914L64.49 1.59241L59.9534 6.00603V7.54271H57.5581V11.5693H59.9534V17.5927C59.9534 20.9527 61.8687 22.8937 64.9852 22.8937C66.0845 22.8937 67.1126 22.6629 67.8464 22.2113V18.781C67.4377 18.8413 66.8462 18.8699 66.3663 18.8699Z" fill="url(#paint0_linear_398_12842)"/>
<path d="M77.7693 7.19724C76.119 7.19724 74.8369 7.99281 73.9079 9.23849V7.54413H69.3838V22.5468H73.9079V14.5824C73.9079 12.4824 75.2331 11.2812 76.7551 11.2812C77.3173 11.2812 78.291 11.5822 78.8546 11.7857V7.42802C78.5714 7.29758 78.178 7.19724 77.7693 7.19724Z" fill="url(#paint1_linear_398_12842)"/>
<path d="M91.4084 7.54413V9.19548C90.2672 7.95124 88.6881 7.19724 86.7727 7.19724C82.755 7.19724 79.9092 10.6433 79.9092 15.0454C79.9092 19.449 82.755 22.8951 86.7727 22.8951C88.6881 22.8951 90.2672 22.1425 91.4084 20.8954V22.5468H95.8627V7.54413H91.4084ZM87.8859 18.8111C85.9273 18.8111 84.4053 17.1885 84.4053 15.0454C84.4053 12.9167 85.9273 11.2812 87.8859 11.2812C89.8585 11.2812 91.4084 12.9167 91.4084 15.0454C91.4084 17.1899 89.8585 18.8111 87.8859 18.8111Z" fill="url(#paint2_linear_398_12842)"/>
<path d="M104.27 7.04816C106.205 7.04816 107.8 7.80789 108.952 9.06647V7.39935H113.448V23.7308L108.952 27.4076V20.8796C107.8 22.1368 106.205 22.898 104.27 22.898C100.215 22.898 97.3413 19.4189 97.3413 14.9738C97.3399 10.5286 100.215 7.04816 104.27 7.04816ZM105.393 18.7753C107.385 18.7753 108.951 17.1383 108.951 14.9738C108.951 12.825 107.385 11.1722 105.393 11.1722C103.415 11.1722 101.879 12.825 101.879 14.9738C101.879 17.1369 103.415 18.7753 105.393 18.7753Z" fill="url(#paint3_linear_398_12842)"/>
<path d="M5.18184 17.2487V11.7571L0.551758 14.5036L5.18184 17.2487Z" fill="#1A266B"/>
<path d="M17.6728 4.34609V6.15368V11.6739C17.6728 12.9841 16.6349 14.0506 15.3599 14.0506C14.0848 14.0506 13.0469 12.9841 13.0469 11.6739V7.08973L8.41406 9.83912V11.6739C8.41406 15.6102 11.5292 18.8112 15.3599 18.8112C16.1704 18.8112 16.9502 18.6678 17.6728 18.4026V24.6582L22.3057 27.4076V11.6739V6.15368V1.59671L17.6728 4.34609Z" fill="#1A266B"/>
<path d="M35.3491 7.54413V9.19548C34.208 7.95124 32.6288 7.19724 30.7107 7.19724C26.6944 7.19724 23.8472 10.6433 23.8472 15.0454C23.8472 19.449 26.6944 22.8951 30.7107 22.8951C32.6288 22.8951 34.2066 22.1425 35.3491 20.8954V22.5468H39.8021V7.54413H35.3491ZM31.8253 18.8111C29.8667 18.8111 28.3447 17.1885 28.3447 15.0454C28.3447 12.9167 29.8667 11.2812 31.8253 11.2812C33.7993 11.2812 35.3491 12.9167 35.3491 15.0454C35.3491 17.1899 33.7993 18.8111 31.8253 18.8111Z" fill="#1A266B"/>
<path d="M49.0416 18.7094C47.2797 18.7094 45.8414 17.0738 45.8414 14.9451C45.8414 12.8164 47.2797 11.1808 49.0416 11.1808C50.3515 11.1808 51.2108 11.8316 51.6056 12.8451H56.2845C55.5368 9.39903 52.8723 7.09689 49.0402 7.09689C44.671 7.09689 41.3452 10.5429 41.3452 14.9451C41.3452 19.3473 44.671 22.7933 49.0402 22.7933C52.8723 22.7933 55.5354 20.4912 56.2845 17.0451H51.6056C51.2108 18.0586 50.3515 18.7094 49.0416 18.7094Z" fill="#1A266B"/>
<path d="M101.517 5.05422C102.447 5.05422 103.201 4.27959 103.201 3.32403C103.201 2.36847 102.447 1.59384 101.517 1.59384C100.587 1.59384 99.833 2.36847 99.833 3.32403C99.833 4.27959 100.587 5.05422 101.517 5.05422Z" fill="#1A266B"/>
<path d="M106.641 5.05422C107.571 5.05422 108.325 4.27959 108.325 3.32403C108.325 2.36847 107.571 1.59384 106.641 1.59384C105.711 1.59384 104.957 2.36847 104.957 3.32403C104.957 4.27959 105.711 5.05422 106.641 5.05422Z" fill="#1A266B"/>
<path d="M111.763 5.05422C112.693 5.05422 113.447 4.27959 113.447 3.32403C113.447 2.36847 112.693 1.59384 111.763 1.59384C110.833 1.59384 110.079 2.36847 110.079 3.32403C110.079 4.27959 110.833 5.05422 111.763 5.05422Z" fill="#1A266B"/>
<defs>
<linearGradient id="paint0_linear_398_12842" x1="60.0842" y1="9.82224" x2="100.11" y2="34.0316" gradientUnits="userSpaceOnUse">
<stop stop-color="#A71BB5"/>
<stop offset="0.4936" stop-color="#F0228C"/>
<stop offset="1" stop-color="#FC5F4F"/>
</linearGradient>
<linearGradient id="paint1_linear_398_12842" x1="61.741" y1="7.08316" x2="101.767" y2="31.2925" gradientUnits="userSpaceOnUse">
<stop stop-color="#A71BB5"/>
<stop offset="0.4936" stop-color="#F0228C"/>
<stop offset="1" stop-color="#FC5F4F"/>
</linearGradient>
<linearGradient id="paint2_linear_398_12842" x1="66.1656" y1="-0.232142" x2="106.191" y2="23.9772" gradientUnits="userSpaceOnUse">
<stop stop-color="#A71BB5"/>
<stop offset="0.4936" stop-color="#F0228C"/>
<stop offset="1" stop-color="#FC5F4F"/>
</linearGradient>
<linearGradient id="paint3_linear_398_12842" x1="71.0193" y1="-8.25692" x2="111.045" y2="15.9524" gradientUnits="userSpaceOnUse">
<stop stop-color="#A71BB5"/>
<stop offset="0.4936" stop-color="#F0228C"/>
<stop offset="1" stop-color="#FC5F4F"/>
</linearGradient>
</defs>
</svg>
